Normalized EMG Linear Envelopes
nRows=117
nColumns=4

endheader
time	 med_gas_r	  soleus_r	 tib_ant_r	
3.8125	  0.000050	  0.016553	  0.000918	
3.875	 -0.004002	  0.013811	  0.000850	
3.9375	 -0.006691	  0.011323	  0.000837	
4	 -0.003190	  0.011427	  0.001047	
4.0625	  0.014291	  0.018415	  0.001742	
4.125	  0.053691	  0.037507	  0.003171	
4.1875	  0.115297	  0.071238	  0.005358	
4.25	  0.187920	  0.116767	  0.008093	
4.3125	  0.259256	  0.168030	  0.011300	
4.375	  0.326763	  0.219587	  0.015172	
4.4375	  0.391620	  0.267619	  0.019652	
4.5	  0.448089	  0.308949	  0.024087	
4.5625	  0.486099	  0.341127	  0.027824	
4.625	  0.503340	  0.364319	  0.030980	
4.6875	  0.511354	  0.381553	  0.034168	
4.75	  0.523376	  0.395341	  0.037487	
4.8125	  0.536519	  0.405004	  0.040236	
4.875	  0.535835	  0.409598	  0.041871	
4.9375	  0.515696	  0.412899	  0.042702	
5	  0.488603	  0.420317	  0.043254	
5.0625	  0.472639	  0.430458	  0.043567	
5.125	  0.474877	  0.437783	  0.043688	
5.1875	  0.488946	  0.443179	  0.044181	
5.25	  0.505290	  0.452252	  0.045537	
5.3125	  0.517157	  0.465196	  0.047373	
5.375	  0.519480	  0.474988	  0.048770	
5.4375	  0.513022	  0.473034	  0.049540	
5.5	  0.507790	  0.456945	  0.050515	
5.5625	  0.512162	  0.434342	  0.052098	
5.625	  0.523438	  0.415754	  0.053574	
5.6875	  0.534200	  0.406398	  0.054349	
5.75	  0.537303	  0.405930	  0.054563	
5.8125	  0.524366	  0.410353	  0.054412	
5.875	  0.494442	  0.415744	  0.053938	
5.9375	  0.463629	  0.422328	  0.053349	
6	  0.452542	  0.431450	  0.052980	
6.0625	  0.465202	  0.441739	  0.053025	
6.125	  0.487531	  0.450963	  0.053626	
6.1875	  0.501594	  0.458398	  0.055084	
6.25	  0.497618	  0.466354	  0.057551	
6.3125	  0.479431	  0.478398	  0.060500	
6.375	  0.461679	  0.492855	  0.062745	
6.4375	  0.457682	  0.502698	  0.063344	
6.5	  0.468203	  0.502024	  0.062548	
6.5625	  0.483691	  0.487365	  0.061421	
6.625	  0.496095	  0.458583	  0.060547	
6.6875	  0.503576	  0.422315	  0.059493	
6.75	  0.505073	  0.387111	  0.057427	
6.8125	  0.497990	  0.356231	  0.054189	
6.875	  0.481609	  0.330682	  0.050872	
6.9375	  0.458286	  0.313678	  0.048894	
7	  0.432795	  0.306961	  0.048173	
7.0625	  0.410416	  0.307985	  0.047089	
7.125	  0.393594	  0.313540	  0.044876	
7.1875	  0.383715	  0.320771	  0.042854	
7.25	  0.383898	  0.325713	  0.042590	
7.3125	  0.394797	  0.326981	  0.043917	
7.375	  0.411538	  0.327534	  0.045487	
7.4375	  0.426829	  0.329479	  0.046320	
7.5	  0.434918	  0.331110	  0.046184	
7.5625	  0.434861	  0.329304	  0.045235	
7.625	  0.429817	  0.322794	  0.043873	
7.6875	  0.422500	  0.314773	  0.042548	
7.75	  0.415989	  0.312107	  0.041642	
7.8125	  0.415655	  0.318981	  0.041659	
7.875	  0.422676	  0.332354	  0.042969	
7.9375	  0.430063	  0.345101	  0.045244	
8	  0.430398	  0.351384	  0.047723	
8.0625	  0.424282	  0.350465	  0.049806	
8.125	  0.418565	  0.346747	  0.050923	
8.1875	  0.417070	  0.343732	  0.050357	
8.25	  0.416822	  0.340196	  0.047987	
8.3125	  0.414565	  0.333454	  0.045074	
8.375	  0.409030	  0.321230	  0.043391	
8.4375	  0.395878	  0.300676	  0.043348	
8.5	  0.372096	  0.271648	  0.043641	
8.5625	  0.344301	  0.241206	  0.042737	
8.625	  0.323494	  0.221027	  0.040417	
8.6875	  0.316216	  0.219594	  0.038299	
8.75	  0.321231	  0.234299	  0.038575	
8.8125	  0.325486	  0.247448	  0.042141	
8.875	  0.309332	  0.235935	  0.048823	
8.9375	  0.265403	  0.191843	  0.057967	
9	  0.206570	  0.130779	  0.066977	
9.0625	  0.151829	  0.077249	  0.071447	
9.125	  0.110189	  0.044461	  0.068127	
9.1875	  0.079107	  0.029544	  0.057040	
9.25	  0.053127	  0.023518	  0.042038	
9.3125	  0.030799	  0.020481	  0.029230	
9.375	  0.014237	  0.018608	  0.022769	
9.4375	  0.004828	  0.017497	  0.022052	
9.5	  0.001226	  0.016726	  0.023061	
9.5625	  0.000820	  0.016048	  0.021977	
9.625	  0.001549	  0.015716	  0.017959	
9.6875	  0.002362	  0.016259	  0.012778	
9.75	  0.002886	  0.018027	  0.008271	
9.8125	  0.003075	  0.020578	  0.005015	
9.875	  0.003036	  0.022387	  0.002938	
9.9375	  0.002901	  0.022077	  0.001893	
10	  0.002745	  0.020010	  0.001585	
10.0625	  0.002616	  0.017693	  0.001624	
10.125	  0.002544	  0.016085	  0.001723	
10.1875	  0.002511	  0.015257	  0.001757	
10.25	  0.002472	  0.014976	  0.001712	
10.3125	  0.002404	  0.014973	  0.001624	
10.375	  0.002315	  0.015039	  0.001529	
10.4375	  0.002217	  0.015108	  0.001447	
10.5	  0.002129	  0.015208	  0.001379	
10.5625	  0.002079	  0.015363	  0.001324	
10.625	  0.002075	  0.015551	  0.001281	
10.6875	  0.002097	  0.015724	  0.001263	
10.75	  0.002135	  0.015865	  0.001291	
10.8125	  0.002212	  0.016055	  0.001385	
10.875	  0.002374	  0.016509	  0.001547	
10.9375	  0.002647	  0.017467	  0.001767	
11	  0.003011	  0.018990	  0.002033	
11.0625	  0.003415	  0.020880	  0.002328	
